<svg xmlns="http://www.w3.org/2000/svg">
	<symbol
		id="fa6-bars"
		stroke="currentColor"
		fill="currentColor"
		stroke-width="0"
		viewBox="0 0 448 512"
	>
		<path
			d="M0 96C0 78.3 14.3 64 32 64H416c17.7 0 32 14.3 32 32s-14.3 32-32 32H32C14.3 128 0 113.7 0 96zM0 256c0-17.7 14.3-32 32-32H416c17.7 0 32 14.3 32 32s-14.3 32-32 32H32c-17.7 0-32-14.3-32-32zM448 416c0 17.7-14.3 32-32 32H32c-17.7 0-32-14.3-32-32s14.3-32 32-32H416c17.7 0 32 14.3 32 32z"
		></path>
	</symbol>

	<symbol
		id="fa6-house"
		stroke="currentColor"
		fill="currentColor"
		stroke-width="0"
		viewBox="0 0 576 512"
	>
		<path
			d="M575.8 255.5c0 18-15 32.1-32 32.1h-32l.7 160.2c0 2.7-.2 5.4-.5 8.1V472c0 22.1-17.9 40-40 40H456c-1.1 0-2.2 0-3.3-.1c-1.4 .1-2.8 .1-4.2 .1H416 392c-22.1 0-40-17.9-40-40V448 384c0-17.7-14.3-32-32-32H256c-17.7 0-32 14.3-32 32v64 24c0 22.1-17.9 40-40 40H160 128.1c-1.5 0-3-.1-4.5-.2c-1.2 .1-2.4 .2-3.6 .2H104c-22.1 0-40-17.9-40-40V360c0-.9 0-1.9 .1-2.8V287.6H32c-18 0-32-14-32-32.1c0-9 3-17 10-24L266.4 8c7-7 15-8 22-8s15 2 21 7L564.8 231.5c8 7 12 15 11 24z"
		></path>
	</symbol>

	<symbol
		id="fa6-pen-to-square"
		stroke="currentColor"
		fill="currentColor"
		stroke-width="0"
		viewBox="0 0 512 512"
	>
		<path
			d="M471.6 21.7c-21.9-21.9-57.3-21.9-79.2 0L362.3 51.7l97.9 97.9 30.1-30.1c21.9-21.9 21.9-57.3 0-79.2L471.6 21.7zm-299.2 220c-6.1 6.1-10.8 13.6-13.5 21.9l-29.6 88.8c-2.9 8.6-.6 18.1 5.8 24.6s15.9 8.7 24.6 5.8l88.8-29.6c8.2-2.7 15.7-7.4 21.9-13.5L437.7 172.3 339.7 74.3 172.4 241.7zM96 64C43 64 0 107 0 160V416c0 53 43 96 96 96H352c53 0 96-43 96-96V320c0-17.7-14.3-32-32-32s-32 14.3-32 32v96c0 17.7-14.3 32-32 32H96c-17.7 0-32-14.3-32-32V160c0-17.7 14.3-32 32-32h96c17.7 0 32-14.3 32-32s-14.3-32-32-32H96z"
		></path>
	</symbol>

	<symbol
		id="fa6-fald-card-clip"
		stroke="currentColor"
		fill="currentColor"
		stroke-width="0"
		viewBox="0 0 576 512"
	>
		<path
			d="M256 0h64c17.7 0 32 14.3 32 32V96c0 17.7-14.3 32-32 32H256c-17.7 0-32-14.3-32-32V32c0-17.7 14.3-32 32-32zM64 64H192v48c0 26.5 21.5 48 48 48h96c26.5 0 48-21.5 48-48V64H512c35.3 0 64 28.7 64 64V448c0 35.3-28.7 64-64 64H64c-35.3 0-64-28.7-64-64V128C0 92.7 28.7 64 64 64zM176 437.3c0 5.9 4.8 10.7 10.7 10.7H389.3c5.9 0 10.7-4.8 10.7-10.7c0-29.5-23.9-53.3-53.3-53.3H229.3c-29.5 0-53.3 23.9-53.3 53.3zM288 352a64 64 0 1 0 0-128 64 64 0 1 0 0 128z"
		></path>
	</symbol>

	<symbol
		id="fa6-puzzle-piece"
		stroke="currentColor"
		fill="currentColor"
		stroke-width="0"
		viewBox="0 0 512 512"
	>
		<path
			d="M192 104.8c0-9.2-5.8-17.3-13.2-22.8C167.2 73.3 160 61.3 160 48c0-26.5 28.7-48 64-48s64 21.5 64 48c0 13.3-7.2 25.3-18.8 34c-7.4 5.5-13.2 13.6-13.2 22.8c0 12.8 10.4 23.2 23.2 23.2H336c26.5 0 48 21.5 48 48v56.8c0 12.8 10.4 23.2 23.2 23.2c9.2 0 17.3-5.8 22.8-13.2c8.7-11.6 20.7-18.8 34-18.8c26.5 0 48 28.7 48 64s-21.5 64-48 64c-13.3 0-25.3-7.2-34-18.8c-5.5-7.4-13.6-13.2-22.8-13.2c-12.8 0-23.2 10.4-23.2 23.2V464c0 26.5-21.5 48-48 48H279.2c-12.8 0-23.2-10.4-23.2-23.2c0-9.2 5.8-17.3 13.2-22.8c11.6-8.7 18.8-20.7 18.8-34c0-26.5-28.7-48-64-48s-64 21.5-64 48c0 13.3 7.2 25.3 18.8 34c7.4 5.5 13.2 13.6 13.2 22.8c0 12.8-10.4 23.2-23.2 23.2H48c-26.5 0-48-21.5-48-48V343.2C0 330.4 10.4 320 23.2 320c9.2 0 17.3 5.8 22.8 13.2C54.7 344.8 66.7 352 80 352c26.5 0 48-28.7 48-64s-21.5-64-48-64c-13.3 0-25.3 7.2-34 18.8C40.5 250.2 32.4 256 23.2 256C10.4 256 0 245.6 0 232.8V176c0-26.5 21.5-48 48-48H168.8c12.8 0 23.2-10.4 23.2-23.2z"
		></path>
	</symbol>

	<symbol
		id="fa6-chess-board"
		stroke="currentColor"
		fill="currentColor"
		stroke-width="0"
		viewBox="0 0 448 512"
	>
		<path
			d="M64 32C28.7 32 0 60.7 0 96V416c0 35.3 28.7 64 64 64H384c35.3 0 64-28.7 64-64V96c0-35.3-28.7-64-64-64H64zm64 64v64h64V96h64v64h64V96h64v64H320v64h64v64H320v64h64v64H320V352H256v64H192V352H128v64H64V352h64V288H64V224h64V160H64V96h64zm64 128h64V160H192v64zm0 64V224H128v64h64zm64 0H192v64h64V288zm0 0h64V224H256v64z"
		></path>
	</symbol>

	<symbol
		id="fa6-bookmark"
		stroke="currentColor"
		fill="currentColor"
		stroke-width="0"
		viewBox="0 0 384 512"
	>
		<path
			d="M0 48V487.7C0 501.1 10.9 512 24.3 512c5 0 9.9-1.5 14-4.4L192 400 345.7 507.6c4.1 2.9 9 4.4 14 4.4c13.4 0 24.3-10.9 24.3-24.3V48c0-26.5-21.5-48-48-48H48C21.5 0 0 21.5 0 48z"
		></path>
	</symbol>

	<symbol
		id="fa6-user"
		stroke="currentColor"
		fill="currentColor"
		stroke-width="0"
		viewBox="0 0 448 512"
	>
		<path
			d="M224 256A128 128 0 1 0 224 0a128 128 0 1 0 0 256zm-45.7 48C79.8 304 0 383.8 0 482.3C0 498.7 13.3 512 29.7 512H418.3c16.4 0 29.7-13.3 29.7-29.7C448 383.8 368.2 304 269.7 304H178.3z"
		></path>
	</symbol>

	<symbol
		id="fa6-right-to-bracket"
		stroke="currentColor"
		fill="currentColor"
		stroke-width="0"
		viewBox="0 0 512 512"
	>
		<path
			d="M217.9 105.9L340.7 228.7c7.2 7.2 11.3 17.1 11.3 27.3s-4.1 20.1-11.3 27.3L217.9 406.1c-6.4 6.4-15 9.9-24 9.9c-18.7 0-33.9-15.2-33.9-33.9l0-62.1L32 320c-17.7 0-32-14.3-32-32l0-64c0-17.7 14.3-32 32-32l128 0 0-62.1c0-18.7 15.2-33.9 33.9-33.9c9 0 17.6 3.6 24 9.9zM352 416l64 0c17.7 0 32-14.3 32-32l0-256c0-17.7-14.3-32-32-32l-64 0c-17.7 0-32-14.3-32-32s14.3-32 32-32l64 0c53 0 96 43 96 96l0 256c0 53-43 96-96 96l-64 0c-17.7 0-32-14.3-32-32s14.3-32 32-32z"
		></path>
	</symbol>

	<symbol
		id="fa6-user-plus"
		stroke="currentColor"
		fill="currentColor"
		stroke-width="0"
		viewBox="0 0 640 512"
	>
		<path
			d="M96 128a128 128 0 1 1 256 0A128 128 0 1 1 96 128zM0 482.3C0 383.8 79.8 304 178.3 304h91.4C368.2 304 448 383.8 448 482.3c0 16.4-13.3 29.7-29.7 29.7H29.7C13.3 512 0 498.7 0 482.3zM504 312V248H440c-13.3 0-24-10.7-24-24s10.7-24 24-24h64V136c0-13.3 10.7-24 24-24s24 10.7 24 24v64h64c13.3 0 24 10.7 24 24s-10.7 24-24 24H552v64c0 13.3-10.7 24-24 24s-24-10.7-24-24z"
		></path>
	</symbol>

	<symbol
		id="light-theme"
		stroke="currentColor"
		fill="currentColor"
		stroke-width="0"
		viewBox="0 0 512 512"
	>
		<path
			d="M256 387c-8.5 0-15.4 6.9-15.4 15.4v46.2c0 8.5 6.9 15.4 15.4 15.4s15.4-6.9 15.4-15.4v-46.2c0-8.5-6.9-15.4-15.4-15.4zM256 48c-8.5 0-15.4 6.9-15.4 15.4v46.2c0 8.5 6.9 15.4 15.4 15.4s15.4-6.9 15.4-15.4V63.4c0-8.5-6.9-15.4-15.4-15.4zM125 256c0-8.5-6.9-15.4-15.4-15.4H63.4c-8.5 0-15.4 6.9-15.4 15.4s6.9 15.4 15.4 15.4h46.2c8.5 0 15.4-6.9 15.4-15.4zM448.6 240.6h-46.2c-8.5 0-15.4 6.9-15.4 15.4s6.9 15.4 15.4 15.4h46.2c8.5 0 15.4-6.9 15.4-15.4s-6.9-15.4-15.4-15.4zM152.5 344.1c-4.1 0-8 1.6-10.9 4.5l-32.7 32.7c-2.9 2.9-4.5 6.8-4.5 10.9s1.6 8 4.5 10.9c2.9 2.9 6.8 4.5 10.9 4.5 4.1 0 8-1.6 10.9-4.5l32.7-32.7c6-6 6-15.8 0-21.8-2.9-2.9-6.8-4.5-10.9-4.5zM359.5 167.9c4.1 0 8-1.6 10.9-4.5l32.7-32.7c2.9-2.9 4.5-6.8 4.5-10.9s-1.6-8-4.5-10.9c-2.9-2.9-6.8-4.5-10.9-4.5-4.1 0-8 1.6-10.9 4.5l-32.7 32.7c-2.9 2.9-4.5 6.8-4.5 10.9s1.6 8 4.5 10.9c2.9 2.9 6.8 4.5 10.9 4.5zM130.7 108.9c-2.9-2.9-6.8-4.5-10.9-4.5-4.1 0-8 1.6-10.9 4.5-2.9 2.9-4.5 6.8-4.5 10.9 0 4.1 1.6 8 4.5 10.9l32.7 32.7c2.9 2.9 6.8 4.5 10.9 4.5 4.1 0 8-1.6 10.9-4.5 2.9-2.9 4.5-6.8 4.5-10.9s-1.6-8-4.5-10.9l-32.7-32.7zM370.4 348.6c-2.9-2.9-6.8-4.5-10.9-4.5-4.1 0-8 1.6-10.9 4.5-6 6-6 15.8 0 21.8l32.7 32.7c2.9 2.9 6.8 4.5 10.9 4.5 4.1 0 8-1.6 10.9-4.5 2.9-2.9 4.5-6.8 4.5-10.9s-1.6-8-4.5-10.9l-32.7-32.7zM256 160c-52.9 0-96 43.1-96 96s43.1 96 96 96 96-43.1 96-96-43.1-96-96-96z"
		></path>
	</symbol>

	<symbol
		id="dark-theme"
		stroke="currentColor"
		fill="currentColor"
		stroke-width="0"
		viewBox="0 0 512 512"
	>
		<path
			d="M401.4 354.2c-2.9.1-5.8.2-8.7.2-47.9 0-93-18.9-126.8-53.4-33.9-34.4-52.5-80.1-52.5-128.8 0-27.7 6.1-54.5 17.5-78.7 3.1-6.6 9.3-16.6 13.6-23.4 1.9-2.9-.5-6.7-3.9-6.1-6 .9-15.2 2.9-27.7 6.8C135.1 95.5 80 168.7 80 255c0 106.6 85.1 193 190.1 193 58 0 110-26.4 144.9-68.1 6-7.2 11.5-13.8 16.4-21.8 1.8-3-.7-6.7-4.1-6.1-8.5 1.7-17.1 1.8-25.9 2.2z"
		></path>
	</symbol>

	<symbol
		id="system-theme"
		stroke="currentColor"
		fill="currentColor"
		stroke-width="0"
		viewBox="0 0 512 512"
	>
		<path
			d="M352 442.2c-.3-2.2-2-3.9-4.2-4.3l-22.3-1.9c-11.8-3.1-20.5-16.2-22.3-28.3L302 400h-92l-1.2 7.6c-1.9 12.1-10.5 25.2-22.3 28.3l-22.3 1.9c-2.1.5-3.9 2.2-4.2 4.3-.4 3.1 2 5.8 5.1 5.8h181.8c3 .1 5.5-2.6 5.1-5.7zM472.9 71c-4.5-4.5-10.7-7-17-7H56.2c-6.4 0-12.5 2.5-17 7S32 81.7 32 88v272c0 6.4 2.7 12.5 7.2 17s10.5 7 16.8 7h400c6.4 0 12.3-2.5 16.8-7s7.2-10.7 7.2-17V88c.1-6.3-2.6-12.5-7.1-17zM256 360c-4.4 0-8-3.6-8-8s3.6-8 8-8 8 3.6 8 8-3.6 8-8 8zm203.9-40H52.2c-2.2 0-4-1.8-4-4V92c0-6.6 5.4-12 12-12h391.7c6.6 0 12 5.4 12 12v224c0 2.2-1.8 4-4 4z"
		></path>
	</symbol>

	<symbol id="cg-close-r" stroke="currentColor" fill="none" stroke-width="0" viewBox="0 0 24 24">
		<path
			d="M16.3956 7.75734C16.7862 8.14786 16.7862 8.78103 16.3956 9.17155L13.4142 12.153L16.0896 14.8284C16.4802 15.2189 16.4802 15.8521 16.0896 16.2426C15.6991 16.6331 15.0659 16.6331 14.6754 16.2426L12 13.5672L9.32458 16.2426C8.93405 16.6331 8.30089 16.6331 7.91036 16.2426C7.51984 15.8521 7.51984 15.2189 7.91036 14.8284L10.5858 12.153L7.60436 9.17155C7.21383 8.78103 7.21383 8.14786 7.60436 7.75734C7.99488 7.36681 8.62805 7.36681 9.01857 7.75734L12 10.7388L14.9814 7.75734C15.372 7.36681 16.0051 7.36681 16.3956 7.75734Z"
			fill="currentColor"
		></path>
		<path
			fill-rule="evenodd"
			clip-rule="evenodd"
			d="M4 1C2.34315 1 1 2.34315 1 4V20C1 21.6569 2.34315 23 4 23H20C21.6569 23 23 21.6569 23 20V4C23 2.34315 21.6569 1 20 1H4ZM20 3H4C3.44772 3 3 3.44772 3 4V20C3 20.5523 3.44772 21 4 21H20C20.5523 21 21 20.5523 21 20V4C21 3.44772 20.5523 3 20 3Z"
			fill="currentColor"
		></path>
	</symbol>

	<symbol
		id="fa6-reg-eye"
		stroke="currentColor"
		fill="currentColor"
		stroke-width="0"
		viewBox="0 0 576 512"
	>
		<path
			d="M288 80c-65.2 0-118.8 29.6-159.9 67.7C89.6 183.5 63 226 49.4 256c13.6 30 40.2 72.5 78.6 108.3C169.2 402.4 222.8 432 288 432s118.8-29.6 159.9-67.7C486.4 328.5 513 286 526.6 256c-13.6-30-40.2-72.5-78.6-108.3C406.8 109.6 353.2 80 288 80zM95.4 112.6C142.5 68.8 207.2 32 288 32s145.5 36.8 192.6 80.6c46.8 43.5 78.1 95.4 93 131.1c3.3 7.9 3.3 16.7 0 24.6c-14.9 35.7-46.2 87.7-93 131.1C433.5 443.2 368.8 480 288 480s-145.5-36.8-192.6-80.6C48.6 356 17.3 304 2.5 268.3c-3.3-7.9-3.3-16.7 0-24.6C17.3 208 48.6 156 95.4 112.6zM288 336c44.2 0 80-35.8 80-80s-35.8-80-80-80c-.7 0-1.3 0-2 0c1.3 5.1 2 10.5 2 16c0 35.3-28.7 64-64 64c-5.5 0-10.9-.7-16-2c0 .7 0 1.3 0 2c0 44.2 35.8 80 80 80zm0-208a128 128 0 1 1 0 256 128 128 0 1 1 0-256z"
		></path>
	</symbol>

	<symbol
		id="fa6-reg-eye-slash"
		stroke="currentColor"
		fill="currentColor"
		stroke-width="0"
		viewBox="0 0 640 512"
	>
		<path
			d="M38.8 5.1C28.4-3.1 13.3-1.2 5.1 9.2S-1.2 34.7 9.2 42.9l592 464c10.4 8.2 25.5 6.3 33.7-4.1s6.3-25.5-4.1-33.7L525.6 386.7c39.6-40.6 66.4-86.1 79.9-118.4c3.3-7.9 3.3-16.7 0-24.6c-14.9-35.7-46.2-87.7-93-131.1C465.5 68.8 400.8 32 320 32c-68.2 0-125 26.3-169.3 60.8L38.8 5.1zm151 118.3C226 97.7 269.5 80 320 80c65.2 0 118.8 29.6 159.9 67.7C518.4 183.5 545 226 558.6 256c-12.6 28-36.6 66.8-70.9 100.9l-53.8-42.2c9.1-17.6 14.2-37.5 14.2-58.7c0-70.7-57.3-128-128-128c-32.2 0-61.7 11.9-84.2 31.5l-46.1-36.1zM394.9 284.2l-81.5-63.9c4.2-8.5 6.6-18.2 6.6-28.3c0-5.5-.7-10.9-2-16c.7 0 1.3 0 2 0c44.2 0 80 35.8 80 80c0 9.9-1.8 19.4-5.1 28.2zm51.3 163.3l-41.9-33C378.8 425.4 350.7 432 320 432c-65.2 0-118.8-29.6-159.9-67.7C121.6 328.5 95 286 81.4 256c8.3-18.4 21.5-41.5 39.4-64.8L83.1 161.5C60.3 191.2 44 220.8 34.5 243.7c-3.3 7.9-3.3 16.7 0 24.6c14.9 35.7 46.2 87.7 93 131.1C174.5 443.2 239.2 480 320 480c47.8 0 89.9-12.9 126.2-32.5zm-88-69.3L302 334c-23.5-5.4-43.1-21.2-53.7-42.3l-56.1-44.2c-.2 2.8-.3 5.6-.3 8.5c0 70.7 57.3 128 128 128c13.3 0 26.1-2 38.2-5.8z"
		></path>
	</symbol>
</svg>
